<svg width="106" height="131" viewBox="0 0 106 131" fill="none" xmlns="http://www.w3.org/2000/svg">
<path d="M33.1708 130.631C16.9324 127.966 3.87616 115.44 0.719277 99.4979C-1.0254 90.687 0.448975 81.131 4.65154 74.0113L5.58044 72.4376L4.48676 69.8269C-1.73039 54.9858 2.15521 37.7106 13.9331 27.829C16.6641 25.5377 47.9294 5.1073 51.0986 3.54312C56.5768 0.839256 61.6379 -0.199406 68.2115 0.0311104C72.9555 0.197466 75.185 0.596799 79.3876 2.03289C92.6047 6.54931 102.593 17.9091 105.281 31.4799C107.025 40.2907 105.551 49.8467 101.348 56.9664L100.42 58.5401L101.513 61.1508C107.73 75.9919 103.845 93.2671 92.0669 103.149C89.3359 105.44 58.0706 125.87 54.9014 127.435C51.8146 128.958 48.432 130.035 44.8591 130.631C41.9133 131.123 36.1679 131.123 33.1708 130.631V130.631ZM43.4403 115.755C45.607 115.264 48.1081 114.26 49.6974 113.242C58.8433 107.386 81.3388 92.4542 82.3676 91.5567C85.4727 88.8477 87.932 84.9046 89.0364 80.864C89.9071 77.6783 89.9059 72.5623 89.0337 69.4025C85.4907 56.567 72.7324 48.9511 60.2649 52.2291C57.4822 52.9607 55.4732 54.0551 48.5429 58.6146C45.195 60.8172 42.0514 62.7932 41.557 63.0057C40.4917 63.4638 38.0008 63.5129 36.9235 63.0971C32.3988 61.3505 30.817 55.6635 33.9419 52.3776C35.3188 50.9297 65.1901 31.3244 66.6522 30.9089C68.9663 30.2514 71.8635 31.176 73.5002 33.0943C74.7503 34.5596 75.2228 35.8663 75.2144 37.835L75.2071 39.5337L76.4629 39.8778C79.614 40.7415 85.1834 43.6317 88.0749 45.9039C88.7714 46.4511 89.428 46.8989 89.5342 46.8989C89.8641 46.8989 90.8798 42.9593 91.1729 40.5426C92.0452 33.3498 88.8524 25.4877 82.9965 20.4082C76.2639 14.5684 67.0434 13.0298 58.9104 16.3891C57.2263 17.0847 58.8594 16.0493 39.9616 28.4027C25.6761 37.741 24.6008 38.5003 22.2972 40.8754C19.517 43.7421 18.0078 46.3608 16.964 50.1295C16.0897 53.2861 16.0908 58.4033 16.9663 61.5752C20.5094 74.4107 33.2676 82.0266 45.7352 78.7486C48.5067 78.0199 50.5058 76.9314 57.4819 72.3527C60.8434 70.1464 63.987 68.1712 64.4678 67.9634C65.5102 67.5127 68.0071 67.4678 69.0766 67.8806C73.6012 69.6272 75.1831 75.3142 72.0582 78.6001C70.6812 80.048 40.81 99.6533 39.3478 100.069C37.0338 100.726 34.1365 99.8017 32.4999 97.8834C31.2497 96.4181 30.7772 95.1114 30.7856 93.1427L30.7929 91.444L29.5372 91.0999C26.3862 90.2362 20.8168 87.346 17.9253 85.0738C17.2289 84.5266 16.5722 84.0788 16.466 84.0788C16.1361 84.0788 15.1204 88.0184 14.8273 90.4351C13.7351 99.4414 18.9567 109.094 27.3309 113.548C32.4997 116.298 37.8272 117.028 43.4405 115.755H43.4403Z" fill="url(#paint0_linear)"/>
<defs>
<linearGradient id="paint0_linear" x1="53" y1="0" x2="53" y2="131" gradientUnits="userSpaceOnUse">
<stop stop-color="#FF1900"/>
<stop offset="1" stop-color="#F5AF19"/>
</linearGradient>
</defs>
</svg>
